<mxfile host="Electron" agent="Mozilla/5.0 (Macintosh; Intel Mac OS X 10_15_7) AppleWebKit/537.36 (KHTML, like Gecko) draw.io/24.7.8 Chrome/128.0.6613.36 Electron/32.0.1 Safari/537.36" version="24.7.8">
  <diagram name="Page-1" id="PFW9ROUeaLnqZc74HKiG">
    <mxGraphModel dx="552" dy="328" grid="1" gridSize="10" guides="1" tooltips="1" connect="1" arrows="1" fold="1" page="1" pageScale="1" pageWidth="1200" pageHeight="1600" math="1" shadow="0">
      <root>
        <mxCell id="0" />
        <mxCell id="1" style="" parent="0" />
        <mxCell id="38fJi7SkvV0uXjDz1UZW-1" value="" style="endArrow=classic;html=1;rounded=0;" parent="1" edge="1">
          <mxGeometry width="50" height="50" relative="1" as="geometry">
            <mxPoint x="360" y="400" as="sourcePoint" />
            <mxPoint x="520" y="400" as="targetPoint" />
          </mxGeometry>
        </mxCell>
        <mxCell id="38fJi7SkvV0uXjDz1UZW-2" value="" style="endArrow=classic;html=1;rounded=0;" parent="1" edge="1">
          <mxGeometry width="50" height="50" relative="1" as="geometry">
            <mxPoint x="440" y="480" as="sourcePoint" />
            <mxPoint x="440" y="320" as="targetPoint" />
          </mxGeometry>
        </mxCell>
        <mxCell id="38fJi7SkvV0uXjDz1UZW-4" value="" style="endArrow=classic;html=1;rounded=0;" parent="1" edge="1">
          <mxGeometry width="50" height="50" relative="1" as="geometry">
            <mxPoint x="611" y="400" as="sourcePoint" />
            <mxPoint x="771" y="400" as="targetPoint" />
          </mxGeometry>
        </mxCell>
        <mxCell id="38fJi7SkvV0uXjDz1UZW-5" value="" style="endArrow=classic;html=1;rounded=0;" parent="1" edge="1">
          <mxGeometry width="50" height="50" relative="1" as="geometry">
            <mxPoint x="691" y="480" as="sourcePoint" />
            <mxPoint x="691" y="320" as="targetPoint" />
          </mxGeometry>
        </mxCell>
        <mxCell id="32McBoKnaoFnG0dK8qUR-18" value="" style="rounded=0;whiteSpace=wrap;html=1;fillColor=none;" vertex="1" parent="1">
          <mxGeometry x="348" y="310" width="180" height="200" as="geometry" />
        </mxCell>
        <mxCell id="32McBoKnaoFnG0dK8qUR-19" value="" style="rounded=0;whiteSpace=wrap;html=1;fillColor=none;" vertex="1" parent="1">
          <mxGeometry x="603" y="310" width="180" height="200" as="geometry" />
        </mxCell>
        <mxCell id="38fJi7SkvV0uXjDz1UZW-3" value="lines" style="" parent="0" />
        <mxCell id="38fJi7SkvV0uXjDz1UZW-8" value="" style="curved=1;endArrow=none;html=1;rounded=0;endFill=0;" parent="38fJi7SkvV0uXjDz1UZW-3" edge="1">
          <mxGeometry width="50" height="50" relative="1" as="geometry">
            <mxPoint x="420" y="440" as="sourcePoint" />
            <mxPoint x="420" y="440" as="targetPoint" />
            <Array as="points">
              <mxPoint x="450" y="440" />
              <mxPoint x="490" y="380" />
              <mxPoint x="430" y="340" />
              <mxPoint x="400" y="360" />
              <mxPoint x="400" y="430" />
              <mxPoint x="410" y="440" />
            </Array>
          </mxGeometry>
        </mxCell>
        <mxCell id="38fJi7SkvV0uXjDz1UZW-9" value="" style="curved=1;endArrow=none;html=1;rounded=0;endFill=0;" parent="38fJi7SkvV0uXjDz1UZW-3" edge="1">
          <mxGeometry width="50" height="50" relative="1" as="geometry">
            <mxPoint x="681" y="440" as="sourcePoint" />
            <mxPoint x="681" y="440" as="targetPoint" />
            <Array as="points">
              <mxPoint x="711" y="440" />
              <mxPoint x="751" y="380" />
              <mxPoint x="731" y="370" />
              <mxPoint x="671" y="360" />
              <mxPoint x="661" y="380" />
              <mxPoint x="651" y="410" />
              <mxPoint x="661" y="430" />
              <mxPoint x="671" y="440" />
            </Array>
          </mxGeometry>
        </mxCell>
        <mxCell id="38fJi7SkvV0uXjDz1UZW-10" value="" style="endArrow=classicThin;html=1;rounded=0;strokeWidth=1;endFill=1;strokeColor=#CC0066;fillColor=#e3c800;" parent="38fJi7SkvV0uXjDz1UZW-3" edge="1">
          <mxGeometry width="50" height="50" relative="1" as="geometry">
            <mxPoint x="408" y="357" as="sourcePoint" />
            <mxPoint x="378" y="337" as="targetPoint" />
          </mxGeometry>
        </mxCell>
        <mxCell id="38fJi7SkvV0uXjDz1UZW-12" value="" style="endArrow=none;html=1;rounded=0;strokeWidth=1;fillColor=#e3c800;strokeColor=#CC0066;" parent="38fJi7SkvV0uXjDz1UZW-3" edge="1">
          <mxGeometry width="50" height="50" relative="1" as="geometry">
            <mxPoint x="389" y="386" as="sourcePoint" />
            <mxPoint x="425" y="332" as="targetPoint" />
          </mxGeometry>
        </mxCell>
        <mxCell id="38fJi7SkvV0uXjDz1UZW-13" value="" style="rounded=0;whiteSpace=wrap;html=1;rotation=-56.4;strokeWidth=0.5;fillColor=none;strokeColor=#CC0066;" parent="38fJi7SkvV0uXjDz1UZW-3" vertex="1">
          <mxGeometry x="406.48" y="353.35" width="3" height="3" as="geometry" />
        </mxCell>
        <mxCell id="38fJi7SkvV0uXjDz1UZW-22" value="" style="endArrow=classicThin;html=1;rounded=0;strokeWidth=1;endFill=1;strokeColor=#CC0066;fillColor=#e3c800;" parent="38fJi7SkvV0uXjDz1UZW-3" edge="1">
          <mxGeometry width="50" height="50" relative="1" as="geometry">
            <mxPoint x="741" y="375" as="sourcePoint" />
            <mxPoint x="759" y="344" as="targetPoint" />
          </mxGeometry>
        </mxCell>
        <mxCell id="38fJi7SkvV0uXjDz1UZW-23" value="" style="endArrow=none;html=1;rounded=0;strokeWidth=1;fillColor=#e3c800;strokeColor=#CC0066;" parent="38fJi7SkvV0uXjDz1UZW-3" edge="1">
          <mxGeometry width="50" height="50" relative="1" as="geometry">
            <mxPoint x="709.5" y="358.35" as="sourcePoint" />
            <mxPoint x="767.5" y="389.35" as="targetPoint" />
          </mxGeometry>
        </mxCell>
        <mxCell id="38fJi7SkvV0uXjDz1UZW-24" value="" style="rounded=0;whiteSpace=wrap;html=1;rotation=28.6;strokeWidth=0.5;fillColor=none;strokeColor=#CC0066;" parent="38fJi7SkvV0uXjDz1UZW-3" vertex="1">
          <mxGeometry x="742" y="373" width="3" height="3" as="geometry" />
        </mxCell>
        <mxCell id="38fJi7SkvV0uXjDz1UZW-28" value="" style="endArrow=classicThin;html=1;rounded=0;strokeWidth=1;endFill=1;strokeColor=#6666FF;" parent="38fJi7SkvV0uXjDz1UZW-3" edge="1">
          <mxGeometry width="50" height="50" relative="1" as="geometry">
            <mxPoint x="691" y="400" as="sourcePoint" />
            <mxPoint x="740" y="375" as="targetPoint" />
          </mxGeometry>
        </mxCell>
        <mxCell id="38fJi7SkvV0uXjDz1UZW-46" value="" style="verticalLabelPosition=bottom;verticalAlign=top;html=1;shape=mxgraph.basic.arc;startAngle=0.07883123079474429;endAngle=0.17116876920525576;strokeColor=#EA6B66;" parent="38fJi7SkvV0uXjDz1UZW-3" vertex="1">
          <mxGeometry x="731" y="365" width="20" height="20" as="geometry" />
        </mxCell>
        <mxCell id="DNTKA2CnVa8zqPOTPg3f-1" value="" style="endArrow=classic;html=1;rounded=0;dashed=1;strokeColor=#EA6B66;" parent="38fJi7SkvV0uXjDz1UZW-3" edge="1">
          <mxGeometry width="50" height="50" relative="1" as="geometry">
            <mxPoint x="480" y="340" as="sourcePoint" />
            <mxPoint x="410" y="356" as="targetPoint" />
          </mxGeometry>
        </mxCell>
        <mxCell id="DNTKA2CnVa8zqPOTPg3f-7" value="" style="endArrow=classicThin;dashed=1;html=1;rounded=0;endFill=1;strokeColor=#3333FF;" parent="38fJi7SkvV0uXjDz1UZW-3" edge="1">
          <mxGeometry width="50" height="50" relative="1" as="geometry">
            <mxPoint x="739" y="375" as="sourcePoint" />
            <mxPoint x="772" y="361" as="targetPoint" />
          </mxGeometry>
        </mxCell>
        <mxCell id="DNTKA2CnVa8zqPOTPg3f-8" value="" style="endArrow=classic;html=1;rounded=0;dashed=1;strokeColor=#99004D;" parent="38fJi7SkvV0uXjDz1UZW-3" edge="1">
          <mxGeometry width="50" height="50" relative="1" as="geometry">
            <mxPoint x="553" y="429" as="sourcePoint" />
            <mxPoint x="462" y="422" as="targetPoint" />
          </mxGeometry>
        </mxCell>
        <mxCell id="DNTKA2CnVa8zqPOTPg3f-9" value="" style="endArrow=classic;html=1;rounded=0;dashed=1;strokeColor=#99004D;" parent="38fJi7SkvV0uXjDz1UZW-3" edge="1">
          <mxGeometry width="50" height="50" relative="1" as="geometry">
            <mxPoint x="578" y="428" as="sourcePoint" />
            <mxPoint x="657" y="425" as="targetPoint" />
          </mxGeometry>
        </mxCell>
        <mxCell id="IHs5Gaeb5Mv6f3-94lG3-10" value="" style="endArrow=none;html=1;rounded=0;strokeColor=#009900;startArrow=classicThin;startFill=1;endFill=0;" parent="38fJi7SkvV0uXjDz1UZW-3" edge="1">
          <mxGeometry width="50" height="50" relative="1" as="geometry">
            <mxPoint x="475" y="492" as="sourcePoint" />
            <mxPoint x="653" y="492" as="targetPoint" />
          </mxGeometry>
        </mxCell>
        <mxCell id="32McBoKnaoFnG0dK8qUR-9" value="" style="endArrow=classic;html=1;rounded=0;dashed=1;strokeColor=#009900;" edge="1" parent="38fJi7SkvV0uXjDz1UZW-3">
          <mxGeometry width="50" height="50" relative="1" as="geometry">
            <mxPoint x="650" y="350" as="sourcePoint" />
            <mxPoint x="737" y="375" as="targetPoint" />
          </mxGeometry>
        </mxCell>
        <mxCell id="32McBoKnaoFnG0dK8qUR-13" value="" style="endArrow=classicThin;html=1;rounded=0;strokeWidth=1;endFill=1;strokeColor=#6666FF;" edge="1" parent="38fJi7SkvV0uXjDz1UZW-3">
          <mxGeometry width="50" height="50" relative="1" as="geometry">
            <mxPoint x="440" y="400.35" as="sourcePoint" />
            <mxPoint x="409" y="356" as="targetPoint" />
          </mxGeometry>
        </mxCell>
        <mxCell id="32McBoKnaoFnG0dK8qUR-14" value="" style="endArrow=classicThin;dashed=1;html=1;rounded=0;endFill=1;strokeColor=#3333FF;" edge="1" parent="38fJi7SkvV0uXjDz1UZW-3">
          <mxGeometry width="50" height="50" relative="1" as="geometry">
            <mxPoint x="409.48" y="356.35" as="sourcePoint" />
            <mxPoint x="390" y="320" as="targetPoint" />
          </mxGeometry>
        </mxCell>
        <mxCell id="32McBoKnaoFnG0dK8qUR-16" value="" style="verticalLabelPosition=bottom;verticalAlign=top;html=1;shape=mxgraph.basic.arc;startAngle=0.8146325133612693;endAngle=0.927768483765246;strokeColor=#EA6B66;" vertex="1" parent="38fJi7SkvV0uXjDz1UZW-3">
          <mxGeometry x="397.98" y="345" width="20" height="20" as="geometry" />
        </mxCell>
        <mxCell id="38fJi7SkvV0uXjDz1UZW-14" value="space" style="" parent="0" />
        <mxCell id="38fJi7SkvV0uXjDz1UZW-15" value="$$\tau\text{-space}$$" style="text;html=1;align=center;verticalAlign=middle;resizable=0;points=[];autosize=1;strokeColor=none;fillColor=none;" parent="38fJi7SkvV0uXjDz1UZW-14" vertex="1">
          <mxGeometry x="369" y="475" width="140" height="30" as="geometry" />
        </mxCell>
        <mxCell id="38fJi7SkvV0uXjDz1UZW-16" value="$$\hat\theta_k\text{-space}$$" style="text;html=1;align=center;verticalAlign=middle;resizable=0;points=[];autosize=1;strokeColor=none;fillColor=none;" parent="38fJi7SkvV0uXjDz1UZW-14" vertex="1">
          <mxGeometry x="600" y="475" width="180" height="30" as="geometry" />
        </mxCell>
        <mxCell id="38fJi7SkvV0uXjDz1UZW-17" value="math" style="" parent="0" />
        <mxCell id="38fJi7SkvV0uXjDz1UZW-19" value="$$\nabla c_{j,k}$$" style="text;html=1;align=center;verticalAlign=middle;resizable=0;points=[];autosize=1;strokeColor=none;fillColor=none;" parent="38fJi7SkvV0uXjDz1UZW-17" vertex="1">
          <mxGeometry x="306" y="331" width="120" height="30" as="geometry" />
        </mxCell>
        <mxCell id="38fJi7SkvV0uXjDz1UZW-20" value="$$\nabla c_{j,k}$$" style="text;html=1;align=center;verticalAlign=middle;resizable=0;points=[];autosize=1;strokeColor=none;fillColor=none;" parent="38fJi7SkvV0uXjDz1UZW-17" vertex="1">
          <mxGeometry x="676" y="328" width="120" height="30" as="geometry" />
        </mxCell>
        <mxCell id="38fJi7SkvV0uXjDz1UZW-33" value="$$\hat\theta_k$$" style="text;html=1;align=center;verticalAlign=middle;resizable=0;points=[];autosize=1;strokeColor=none;fillColor=none;" parent="38fJi7SkvV0uXjDz1UZW-17" vertex="1">
          <mxGeometry x="580" y="330" width="110" height="30" as="geometry" />
        </mxCell>
        <mxCell id="38fJi7SkvV0uXjDz1UZW-38" value="$$\tau(\hat\theta)$$" style="text;html=1;align=center;verticalAlign=middle;resizable=0;points=[];autosize=1;strokeColor=none;fillColor=none;" parent="38fJi7SkvV0uXjDz1UZW-17" vertex="1">
          <mxGeometry x="430" y="310" width="130" height="30" as="geometry" />
        </mxCell>
        <mxCell id="38fJi7SkvV0uXjDz1UZW-42" value="$$T(\hat\theta_k)$$" style="text;html=1;align=center;verticalAlign=middle;resizable=0;points=[];autosize=1;strokeColor=none;fillColor=none;" parent="38fJi7SkvV0uXjDz1UZW-17" vertex="1">
          <mxGeometry x="500" y="456" width="130" height="30" as="geometry" />
        </mxCell>
        <mxCell id="DNTKA2CnVa8zqPOTPg3f-10" value="$$c_j$$" style="text;html=1;align=center;verticalAlign=middle;resizable=0;points=[];autosize=1;strokeColor=none;fillColor=none;" parent="38fJi7SkvV0uXjDz1UZW-17" vertex="1">
          <mxGeometry x="530" y="410" width="70" height="30" as="geometry" />
        </mxCell>
      </root>
    </mxGraphModel>
  </diagram>
</mxfile>
